<svg xmlns="http://www.w3.org/2000/svg" viewBox="0 0 1280 720" role="img" aria-label="Classroom and rink pulling apart">
<defs><linearGradient id="g" x1="0" y1="0" x2="1" y2="0"><stop offset="0" stop-color="#1d1638"/><stop offset=".5" stop-color="#120e26"/><stop offset="1" stop-color="#0b2036"/></linearGradient></defs>
<rect width="1280" height="720" fill="url(#g)"/>
<line x1="640" y1="60" x2="640" y2="660" stroke="#b18bff" stroke-width="3" stroke-dasharray="10 12" opacity=".6"/>
<g><rect x="120" y="180" width="380" height="230" rx="10" fill="#0e0b1c" stroke="#6b5bb0" stroke-width="3"/>
<g stroke="#9d8cd8" stroke-width="3" opacity=".7"><line x1="160" y1="240" x2="440" y2="240"/><line x1="160" y1="284" x2="440" y2="284"/><line x1="160" y1="328" x2="380" y2="328"/></g>
<text x="310" y="380" text-anchor="middle" font-family="Inter,sans-serif" font-size="17" fill="#b7a8e8">GAOKAO</text></g>
<g><rect x="120" y="450" width="120" height="70" rx="6" fill="#2b2350"/><rect x="270" y="450" width="120" height="70" rx="6" fill="#2b2350"/><rect x="420" y="450" width="80" height="70" rx="6" fill="#2b2350"/></g>
<g transform="translate(830,240)">
<rect x="0" y="120" width="330" height="180" rx="10" fill="#0a2036" stroke="#4dc4ff" stroke-width="3" opacity=".9"/>
<rect x="26" y="146" width="278" height="128" fill="#cfe6f7" opacity=".22"/>
<ellipse cx="165" cy="240" rx="90" ry="26" fill="none" stroke="#4dc4ff" stroke-width="3" opacity=".6"/>
<line x1="70" y1="60" x2="180" y2="112" stroke="#8a5a2b" stroke-width="9" stroke-linecap="round"/>
<ellipse cx="60" cy="56" rx="18" ry="9" fill="#0e1116"/></g>
<text x="310" y="620" text-anchor="middle" font-family="Inter,sans-serif" font-size="18" fill="#9d8cd8" letter-spacing="4">STUDENT</text>
<text x="990" y="620" text-anchor="middle" font-family="Inter,sans-serif" font-size="18" fill="#6fc9f0" letter-spacing="4">ATHLETE</text>
<text x="640" y="680" text-anchor="middle" font-family="Inter,sans-serif" font-weight="900" font-size="22" fill="#c9b8ff">PICK ONE</text>
</svg>
